<svg id="Layer_1" data-name="Layer 1" xmlns="http://www.w3.org/2000/svg" viewBox="0 0 759.709 692.246"><defs><style>.cls-1{fill:#fff;}</style></defs><title>White Logo</title><path class="cls-1" d="M474.633,455.786c63.347,10.341,113.493,30.065,147.735,84.317C587.984,591.08,541.8,617.894,480.416,629,450.845,573.663,452.922,520.317,474.633,455.786Z" transform="translate(-141.557 -124.731)"/><path class="cls-1" d="M737.543,802c2.527-3.938,4.812-7.011,6.448-10.4.4-.836-1.307-2.692-2.045-4.079l-9.278,10.706Z" transform="translate(-141.557 -124.731)"/><path class="cls-1" d="M243.948,787.095l-1.217-2.342c-.449.457-.932.885-1.339,1.376-.753.909-1.4,1.911-2.208,2.765a14.7,14.7,0,0,1-2,1.523c.911.167,2.123.784,2.675.415A33.75,33.75,0,0,0,243.948,787.095Z" transform="translate(-141.557 -124.731)"/><path class="cls-1" d="M648.6,574.417c3.455,34.829-3.488,55.569-3.587,84.443-.166,48.4,30.524,93.821,75.69,106.229,46.192,12.69,98.139-8.847,119.384-49.5,24.238-46.377,14.852-98.291-25.343-130.61-25.583-20.571-52.944-38.923-79.283-58.571-3.282-2.448-5.188-6.74-8.1-10.673,73.564-16.5,152.475,38.55,170.372,117.281,14.944,65.74-18.814,138.344-77.562,166.816-67.929,32.921-141.943,17.639-189.419-39.11-73.864-88.291-198.193-107.078-293.775-44.391-29.8,19.543-65.455,15.967-87.413-8.767-20.708-23.327-21.069-60.968-.808-84.26,21.966-25.252,57.571-28.936,88.071-9.113,92.435,60.075,224.376,53.15,298.6-27.876C637.448,584.121,639.859,582.288,648.6,574.417Z" transform="translate(-141.557 -124.731)"/><path class="cls-1" d="M435.3,613.311c-35.087-16.472-65.675-29.711-95.214-44.979-38.265-19.78-86.851-12.714-119.032,19.087-33.714,33.315-40.676,82.382-17.721,124.894,19.912,36.876,67.1,61.268,107.3,49.732,30.981-8.89,59.627-25.711,89.731-37.975,10.2-4.156,21.686-5.16,33.376-7.782-12.224,59.161-95.931,106.848-163.3,94.823-79.43-14.177-130.514-76.994-128.84-158.432,1.463-71.181,60.327-133,136.3-143.142C379.5,495.974,459.432,391.481,455.266,277.66c-1.705-46.587,35.529-80.018,78.118-69.936,28.47,6.74,44.9,25.607,49.841,53.658,5.048,28.672-10.516,53.686-41.152,69.693-98.186,51.3-142.988,160.834-109.081,266.56C433.647,599.673,433.657,601.92,435.3,613.311Z" transform="translate(-141.557 -124.731)"/><path class="cls-1" d="M493.593,423.641c31.595-22.454,58.162-42.581,85.981-60.8,36.038-23.6,53.773-69.377,41.9-113.035-12.434-45.738-51.738-75.925-100.042-76.838-41.9-.792-86.342,28.305-96.062,68.981-7.491,31.348-6.928,64.564-11.05,96.808-1.4,10.926-6.169,21.421-9.634,32.889-45.506-39.732-45.875-136.069-2.279-188.824,51.4-62.2,131.215-75.793,201.306-34.295C664.982,184.8,689.872,266.457,661.349,337.6,623.2,432.743,674.894,553.721,776.055,606.056c41.405,21.421,52.209,70.281,22.491,102.41-19.867,21.477-44.375,26.51-71.229,17.018-27.449-9.7-41.579-35.553-40.454-70.1,3.6-110.721-69.748-203.588-178.483-226.045C506.282,428.905,504.321,427.809,493.593,423.641Z" transform="translate(-141.557 -124.731)"/></svg>